<svg xmlns="http://www.w3.org/2000/svg" viewBox="0 0 1200 750" width="1200" height="750" role="img">
<rect width="1200" height="750" fill="#F4F3EF"/>
<rect x="125.81961328536272" y="95.81961328536272" width="68.36077342927456" height="68.36077342927456" fill="none" stroke="#17180F" stroke-width="11"/><rect x="345.8196132853627" y="95.81961328536272" width="68.36077342927456" height="68.36077342927456" fill="none" stroke="#17180F" stroke-width="11"/><rect x="565.8196132853627" y="95.81961328536272" width="68.36077342927456" height="68.36077342927456" fill="none" stroke="#17180F" stroke-width="11"/><rect x="785.8196132853627" y="95.81961328536272" width="68.36077342927456" height="68.36077342927456" fill="none" stroke="#17180F" stroke-width="11"/><rect x="1005.8196132853627" y="95.81961328536272" width="68.36077342927456" height="68.36077342927456" fill="none" stroke="#17180F" stroke-width="11"/><rect x="125.81961328536272" y="259.1529466186961" width="68.36077342927456" height="68.36077342927456" fill="none" stroke="#17180F" stroke-width="11"/><rect x="345.8196132853627" y="259.1529466186961" width="68.36077342927456" height="68.36077342927456" fill="none" stroke="#17180F" stroke-width="11"/><rect x="565.8196132853627" y="259.1529466186961" width="68.36077342927456" height="68.36077342927456" fill="none" stroke="#17180F" stroke-width="11"/><rect x="785.8196132853627" y="259.1529466186961" width="68.36077342927456" height="68.36077342927456" fill="none" stroke="#17180F" stroke-width="11"/><rect x="1005.8196132853627" y="259.1529466186961" width="68.36077342927456" height="68.36077342927456" fill="none" stroke="#17180F" stroke-width="11"/><rect x="125.81961328536272" y="422.4862799520294" width="68.36077342927456" height="68.36077342927456" fill="none" stroke="#17180F" stroke-width="11"/><rect x="345.8196132853627" y="422.4862799520294" width="68.36077342927456" height="68.36077342927456" fill="none" stroke="#17180F" stroke-width="11"/><rect x="565.8196132853627" y="422.4862799520294" width="68.36077342927456" height="68.36077342927456" fill="none" stroke="#17180F" stroke-width="11"/><rect x="785.8196132853627" y="422.4862799520294" width="68.36077342927456" height="68.36077342927456" fill="#8A5A12"/><rect x="1005.8196132853627" y="422.4862799520294" width="68.36077342927456" height="68.36077342927456" fill="none" stroke="#17180F" stroke-width="11"/><rect x="125.81961328536272" y="585.8196132853627" width="68.36077342927456" height="68.36077342927456" fill="none" stroke="#17180F" stroke-width="11"/><rect x="345.8196132853627" y="585.8196132853627" width="68.36077342927456" height="68.36077342927456" fill="none" stroke="#17180F" stroke-width="11"/><rect x="565.8196132853627" y="585.8196132853627" width="68.36077342927456" height="68.36077342927456" fill="none" stroke="#17180F" stroke-width="11"/><rect x="785.8196132853627" y="585.8196132853627" width="68.36077342927456" height="68.36077342927456" fill="none" stroke="#17180F" stroke-width="11"/><rect x="1005.8196132853627" y="585.8196132853627" width="68.36077342927456" height="68.36077342927456" fill="none" stroke="#17180F" stroke-width="11"/>
<line x1="0" y1="749" x2="1200" y2="749" stroke="#17180F" stroke-width="10"/>
</svg>